<?xml version="1.0" encoding="iso-8859-1"?>
<!-- Generator: Adobe Illustrator 23.0.1, SVG Export Plug-In . SVG Version: 6.00 Build 0)  -->
<svg version="1.1" id="Capa_1" xmlns="http://www.w3.org/2000/svg" xmlns:xlink="http://www.w3.org/1999/xlink" x="0px" y="0px"
	 viewBox="-49 141 512 512" style="enable-background:new -49 141 512 512;" xml:space="preserve">
<path d="M207,357c57.344,0,104-46.656,104-104s-46.656-104-104-104s-104,46.656-104,104S149.656,357,207,357z M151.36,261
	c0.824,13.776,3.6,26.088,7.608,36.824c-7.584,4.776-13.112,10.072-16.808,14.464c-12.64-13.808-20.968-31.592-22.752-51.288H151.36
	L151.36,261z M206.968,167.08c6.24,5.216,17.864,16.464,27,33.592C226.632,203.264,217.72,205,207,205
	c-10.8,0-19.736-1.76-27.104-4.376C189.024,183.432,200.672,172.28,206.968,167.08z M165.632,193.456
	c-5.384-3.656-9.168-7.488-11.648-10.528c8.552-6.488,18.288-11.456,28.872-14.48C177.104,174.992,171,183.312,165.632,193.456z
	 M231.144,168.448c10.576,3.024,20.312,7.992,28.856,14.472c-2.48,3.024-6.256,6.856-11.648,10.512
	C243,183.304,236.888,174.992,231.144,168.448z M207,221c13.288,0,24.352-2.264,33.504-5.648c3.144,8.768,5.368,18.672,6.128,29.648
	H167.36c0.752-11.016,2.936-20.928,6.056-29.688C182.576,218.72,193.664,221,207,221z M246.64,261
	c-0.752,11.016-2.936,20.928-6.048,29.688C231.424,287.28,220.336,285,207,285c-13.288,0-24.352,2.264-33.504,5.648
	c-3.144-8.768-5.368-18.672-6.128-29.648H246.64z M207.032,338.92c-6.24-5.216-17.864-16.464-27-33.592
	C187.368,302.736,196.28,301,207,301c10.8,0,19.736,1.76,27.104,4.376C224.976,322.568,213.328,333.72,207.032,338.92z
	 M248.368,312.544c5.384,3.656,9.168,7.488,11.648,10.528c-8.552,6.488-18.288,11.456-28.872,14.48
	C236.896,331.008,243.008,322.688,248.368,312.544z M182.856,337.552c-10.576-3.024-20.312-7.992-28.856-14.472
	c2.48-3.024,6.256-6.856,11.648-10.512C171,322.696,177.112,331.008,182.856,337.552z M271.84,312.288
	c-3.696-4.384-9.232-9.688-16.808-14.464c4.008-10.736,6.784-23.056,7.608-36.824h31.96
	C292.808,280.696,284.48,298.48,271.84,312.288z M294.592,245h-31.96c-0.824-13.776-3.6-26.088-7.608-36.824
	c7.584-4.776,13.112-10.072,16.808-14.464C284.48,207.52,292.808,225.304,294.592,245z M142.16,193.712
	c3.696,4.384,9.232,9.688,16.808,14.464c-4.008,10.736-6.784,23.056-7.608,36.824H119.4
	C121.192,225.304,129.52,207.52,142.16,193.712z"/>
<rect x="-41" y="261" width="16" height="96"/>
<rect x="39" y="261" width="16" height="96"/>
<rect x="439" y="261" width="16" height="96"/>
<rect x="359" y="261" width="16" height="96"/>
<rect x="-41" y="229" width="16" height="16"/>
<rect x="39" y="229" width="16" height="16"/>
<rect x="359" y="229" width="16" height="16"/>
<rect x="439" y="229" width="16" height="16"/>
<rect x="-1" y="293" width="16" height="15.432"/>
<rect x="-1" y="333.56" width="16" height="15.432"/>
<rect x="-1" y="374.12" width="16" height="15.432"/>
<rect x="79" y="293" width="16" height="15.432"/>
<rect x="79" y="333.56" width="16" height="15.432"/>
<rect x="79" y="374.12" width="16" height="15.432"/>
<rect x="319" y="293" width="16" height="15.432"/>
<rect x="319" y="333.56" width="16" height="15.432"/>
<rect x="319" y="374.12" width="16" height="15.432"/>
<rect x="399" y="293" width="16" height="15.432"/>
<rect x="399" y="333.56" width="16" height="15.432"/>
<rect x="399" y="374.12" width="16" height="15.432"/>
<rect x="175" y="517" width="64" height="16"/>
<path d="M439,525.344l-168.016,7.304c-0.032-5.728-0.872-11.264-2.32-16.544L359,499.672V477H239v0.656
	c-2.64-1.536-5.392-2.888-8.256-4.04l-7.104-85.304C222.92,379.728,215.616,373,207,373s-15.92,6.728-16.64,15.312l-7.112,85.312
	c-2.864,1.152-5.608,2.504-8.256,4.04V477H55v22.672l90.336,16.424c-1.448,5.28-2.288,10.816-2.32,16.544L-25,525.344V509h-16
	v47.024l42.992,5.608C0.144,565.032-1,568.864-1,573c0,13.232,10.768,24,24,24s24-10.768,24-24c0-1.936-0.288-3.792-0.728-5.592
	L95,573.76V621h-8v-8H71v32h16v-8h32v8h16v-32h-16v8h-8v-20l28.56-21.424l4.656,0.608C147.296,589.896,156.288,597,167,597h80
	c10.712,0,19.704-7.104,22.776-16.816l4.656-0.608L303,601v20h-8v-8h-16v32h16v-8h32v8h16v-32h-16v8h-8v-47.24l48.728-6.352
	c-0.44,1.8-0.728,3.656-0.728,5.592c0,13.232,10.768,24,24,24s24-10.768,24-24c0-4.136-1.144-7.968-2.992-11.368L455,556.024V509
	h-16V525.344z M23,581c-4.408,0-8-3.592-8-8s3.592-8,8-8s8,3.592,8,8S27.408,581,23,581z M391,581c-4.408,0-8-3.592-8-8s3.592-8,8-8
	s8,3.592,8,8S395.408,581,391,581z M207,541c-23.776,0-39.608,14.776-48,25.52V533c0-26.472,21.528-48,48-48s48,21.528,48,48v33.52
	C246.608,555.776,230.776,541,207,541z M245.688,581H168.32c4.88-7.456,18.016-24,38.688-24S240.816,573.56,245.688,581z
	 M262.336,500.992c-1.624-2.8-3.432-5.48-5.456-7.992h49.4L262.336,500.992z M206.312,389.64c0.064-0.728,1.32-0.728,1.384,0
	l6.648,79.816c-2.416-0.28-4.856-0.456-7.344-0.456s-4.928,0.176-7.344,0.456L206.312,389.64z M107.72,493h49.4
	c-2.016,2.512-3.824,5.192-5.456,7.992L107.72,493z M-25,541.352l168,7.304v15.232l-168-21.912V541.352z M111,581v-5.152l5.848,0.76
	L111,581z M303,581l-5.848-4.384l5.848-0.768V581z M271,563.888v-15.232l168-7.304v0.624L271,563.888z"/>
</svg>
