<?xml version="1.0" encoding="iso-8859-1"?>
<!-- Generator: Adobe Illustrator 23.0.1, SVG Export Plug-In . SVG Version: 6.00 Build 0)  -->
<svg version="1.1" id="Capa_1" xmlns="http://www.w3.org/2000/svg" xmlns:xlink="http://www.w3.org/1999/xlink" x="0px" y="0px"
	 viewBox="-49 141 512 512" style="enable-background:new -49 141 512 512;" xml:space="preserve">
<g>
	<path d="M375,149h-8h-72h-16h-64h-16h-64h-16H39v64c0,23.736,17.336,43.448,40,47.28V445H55c-13.232,0-24,10.768-24,24
		s10.768,24,24,24h24v32H7v-88c0-13.232-10.768-24-24-24s-24,10.768-24,24v88v8v32v8v72H7v-72h32v72h48v-73.472
		c9.288-3.312,16-12.112,16-22.528c0-7.064-3.128-13.36-8-17.76V493h40v104h-32v48h112v-48h-32V493h80c13.232,0,24-10.768,24-24
		s-10.768-24-24-24h-72v-32c13.232,0,24-10.768,24-24c0-7.208-3.192-13.856-8.496-18.336c0.328-1.856,0.496-3.752,0.496-5.664
		c0-17.648-14.352-32-32-32c-5.64,0-11.152,1.52-16,4.368c-4.848-2.848-10.36-4.368-16-4.368c-17.648,0-32,14.352-32,32
		c0,1.912,0.168,3.808,0.496,5.664C106.192,375.144,103,381.792,103,389c0,13.232,10.768,24,24,24v32H95V260.28
		c13.328-2.248,24.8-9.968,32-20.8c8.608,12.96,23.312,21.52,40,21.52s31.392-8.568,40-21.52c8.608,12.96,23.312,21.52,40,21.52
		s31.392-8.568,40-21.52c8.608,12.96,23.312,21.52,40,21.52s31.392-8.568,40-21.52c8.608,12.96,23.312,21.52,40,21.52
		c12.296,0,23.496-4.688,32-12.328V629h-80v-56v-8v-32v-8v-88c0-13.232-10.768-24-24-24s-24,10.768-24,24v88h-72
		c-13.232,0-24,10.768-24,24c0,10.416,6.712,19.216,16,22.528V645h48v-72h32v72h40h8h96V213v-8v-56H375z M-25,437
		c0-4.416,3.584-8,8-8s8,3.584,8,8v88h-16V437z M-9,629h-16v-56h16V629z M71,629H55v-56h16V629z M79,557H-25v-16H79
		c4.416,0,8,3.584,8,8S83.416,557,79,557z M199,613v16h-80v-16H199z M151,597V493h16v104H151z M119,389
		c0-3.232,1.928-6.136,4.92-7.384l7.4-3.08l-3.088-7.392c-0.816-1.96-1.232-4.016-1.232-6.144c0-8.824,7.184-16,16-16
		c3.88,0,7.656,1.48,10.648,4.168l5.352,4.824l5.352-4.816C167.344,350.48,171.12,349,175,349c8.816,0,16,7.176,16,16
		c0,2.128-0.416,4.184-1.232,6.152l-3.088,7.392l7.4,3.08c2.992,1.24,4.92,4.144,4.92,7.376c0,4.416-3.584,8-8,8h-64
		C122.584,397,119,393.416,119,389z M175,413v32h-32v-32H175z M263,461c4.416,0,8,3.584,8,8s-3.584,8-8,8H55c-4.416,0-8-3.584-8-8
		s3.584-8,8-8H263z M119,213c0,17.648-14.352,32-32,32s-32-14.352-32-32v-48h64V213z M199,213c0,17.648-14.352,32-32,32
		s-32-14.352-32-32v-48h64V213z M279,213c0,17.648-14.352,32-32,32s-32-14.352-32-32v-48h64V213z M263,629h-16v-56h16V629z M343,629
		h-16v-56h16V629z M343,557H239c-4.416,0-8-3.584-8-8s3.584-8,8-8h104V557z M343,525h-16v-88c0-4.416,3.584-8,8-8s8,3.584,8,8V525z
		 M439,205v8c0,17.648-14.352,32-32,32s-32-14.352-32-32v-16h-16v16c0,17.648-14.352,32-32,32s-32-14.352-32-32v-48h64v16h16v-16h64
		V205z"/>
	<path d="M399,277H287v112h112V277z M335,373h-32v-32h32V373z M335,325h-32v-32h32V325z M383,373h-32v-32h32V373z M383,325h-32v-32
		h32V325z"/>
</g>
</svg>
