<?xml version="1.0" encoding="iso-8859-1"?>
<!-- Generator: Adobe Illustrator 23.0.1, SVG Export Plug-In . SVG Version: 6.00 Build 0)  -->
<svg version="1.1" id="&#x421;&#x43B;&#x43E;&#x439;_1"
	 xmlns="http://www.w3.org/2000/svg" xmlns:xlink="http://www.w3.org/1999/xlink" x="0px" y="0px" viewBox="0 0 1920 1080"
	 style="enable-background:new 0 0 1920 1080;" xml:space="preserve">
<g>
	<rect x="984" y="740" width="16" height="16"/>
	<path d="M736,404h37.336L816,436v-32h32c13.23,0,24-10.77,24-24v-64c0-13.23-10.77-24-24-24H736c-13.23,0-24,10.77-24,24v64
		C712,393.23,722.77,404,736,404L736,404z M728,316c0-4.414,3.586-8,8-8h112c4.414,0,8,3.586,8,8v64c0,4.414-3.586,8-8,8h-48v16
		l-21.336-16H736c-4.414,0-8-3.586-8-8V316z M728,316"/>
	<rect x="744" y="356" width="96" height="16"/>
	<path d="M1184,292h-112c-13.23,0-24,10.77-24,24v64c0,13.23,10.77,24,24,24h32v32l42.664-32H1184c13.23,0,24-10.77,24-24v-64
		C1208,302.77,1197.23,292,1184,292L1184,292z M1192,380c0,4.414-3.586,8-8,8h-42.664L1120,404v-16h-48c-4.414,0-8-3.586-8-8v-64
		c0-4.414,3.586-8,8-8h112c4.414,0,8,3.586,8,8V380z M1192,380"/>
	<rect x="1080" y="356" width="96" height="16"/>
	<rect x="744" y="324" width="96" height="16"/>
	<rect x="1080" y="324" width="96" height="16"/>
	<path d="M1177.695,582.176l-33.703-8.434v-3.832C1158.902,559.504,1168,542.312,1168,524v-13.984
		c0-31.078-24.352-57.086-54.273-57.985c-0.481-0.031-0.942-0.008-2.032,0.016c-0.472-0.016-0.918-0.024-1.414-0.024
		c-29.929,0.907-54.281,26.915-54.281,57.993V524c0,18.312,9.098,35.504,24.008,45.91v3.832L1056,579.754V540
		c0-52.938-43.062-96-96-96s-96,43.062-96,96v39.832l-24.008-6.078v-3.832C854.902,559.504,864,542.312,864,524v-13.984
		c0-31.078-24.352-57.086-54.273-57.985c-0.481-0.031-0.942-0.008-2.032,0.016c-0.472-0.016-0.918-0.024-1.414-0.024
		C776.352,452.93,752,478.938,752,510.016V524c0,18.312,9.098,35.504,24.008,45.91v3.832l-33.703,8.434
		C724.465,586.641,712,602.594,712,620.984V660h192v-25.09c4.055,7.32,9.512,13.754,16,18.969v16.105l-63.52,18.321
		c-23.832,6.879-40.48,29-40.48,53.808V788h288v-45.887c0-24.808-16.648-46.922-40.48-53.808L1000,669.984v-16.105
		c6.52-5.238,12-11.703,16.062-19.07L1016,660h192v-39.016C1208,602.594,1195.535,586.641,1177.695,582.176L1177.695,582.176z
		 M728,644v-23.016c0-11.031,7.48-20.609,18.176-23.289l45.816-11.449l0.031-25.316l-4-2.313C775.672,551.465,768,538.199,768,524
		v-13.984c0-22.512,17.391-41.352,39.047-41.985l2.183-0.008c21.379,0.641,38.77,19.481,38.77,41.993V524
		c0,14.199-7.672,27.465-20.023,34.617l-4,2.313l0.031,25.316l40.015,9.984c0.114,14.747,10.258,27.043,23.922,30.618L888,644H728z
		 M896,612c-8.824,0-16-7.176-16-16c0-8.824,7.176-16,16-16v24c0,2.711,0.223,5.375,0.551,8H896z M832,742.113
		c0-17.715,11.887-33.511,28.91-38.433l61.336-17.696l0.168,0.672c3.656,14.617,15.305,25.406,29.578,28.414V772h-72v-48h-16v48h-32
		v-29.887H832z M984,675.031l-1.938,7.754C979.52,692.91,970.457,700,960,700s-19.52-7.09-22.062-17.215L936,675.031v-11.742
		c7.414,3.016,15.512,4.711,24,4.711c8.488,0,16.586-1.695,24-4.711V675.031z M1059.09,703.68
		c17.023,4.914,28.91,20.718,28.91,38.433V772h-32v-48h-16v48h-72v-56.93c14.273-3.008,25.922-13.797,29.574-28.414l0.168-0.672
		L1059.09,703.68z M1008,604c0,26.473-21.527,48-48,48s-48-21.527-48-48v-32c0-4.414,3.586-8,8-8h80c4.414,0,8,3.586,8,8V604z
		 M1000,548h-80c-10.414,0-19.215,6.711-22.527,16H896c-5.855,0-11.273,1.695-16,4.449V540c0-44.113,35.887-80,80-80
		c44.113,0,80,35.887,80,80v28.449c-4.727-2.754-10.145-4.449-16-4.449h-1.473C1019.215,554.711,1010.414,548,1000,548L1000,548z
		 M1023.449,612c0.328-2.625,0.551-5.289,0.551-8v-24c8.824,0,16,7.176,16,16c0,8.824-7.176,16-16,16H1023.449z M1192,644h-160
		l-0.008-17.137c13.688-3.551,23.871-15.855,23.985-30.625l40.015-10l0.031-25.316l-4-2.313C1079.672,551.465,1072,538.199,1072,524
		v-13.984c0-22.512,17.391-41.352,39.047-41.985l2.183-0.008c21.379,0.641,38.77,19.481,38.77,41.993V524
		c0,14.199-7.672,27.465-20.023,34.617l-4,2.313l0.031,25.316l45.816,11.449c10.696,2.68,18.176,12.258,18.176,23.289V644z
		 M1192,644"/>
</g>
</svg>
