<?xml version="1.0" encoding="iso-8859-1"?>
<!-- Generator: Adobe Illustrator 23.0.1, SVG Export Plug-In . SVG Version: 6.00 Build 0)  -->
<svg version="1.1" id="Capa_1" xmlns="http://www.w3.org/2000/svg" xmlns:xlink="http://www.w3.org/1999/xlink" x="0px" y="0px"
	 viewBox="-49 141 512 512" style="enable-background:new -49 141 512 512;" xml:space="preserve">
<g>
	<path d="M144.368,317C161.264,317,175,303.256,175,286.376c0-8.184-3.184-15.872-8.976-21.656l-32-32
		c-4.528-4.536-7.024-10.56-7.024-16.976V197h-16v18.744c0,10.688,4.16,20.736,11.712,28.288l32,32
		c2.728,2.728,4.288,6.488,4.288,10.344c0,8.064-6.56,14.624-14.632,14.624c-3.904,0-7.584-1.52-10.344-4.28L79.4,242.088
		C65.8,228.488,47.72,221,28.496,221H7v-42.584l17.808-7.12C35.24,167.12,46.24,165,57.488,165h109.984
		c4.592,0,9.208,0.36,13.72,1.072l48,7.584c11.776,1.856,22.448,7.296,30.864,15.72l38.664,38.656
		c2.72,2.728,4.28,6.488,4.28,10.344c0,8.064-6.56,14.624-14.632,14.624c-3.904,0-7.584-1.52-10.344-4.28l-27.312-27.312
		C240.144,210.832,226.08,205,211.12,205h-40.784c-8.656,0-17.312,2.048-25.04,5.912l-5.864,2.928l7.152,14.312l5.864-2.928
		c5.52-2.76,11.704-4.224,17.888-4.224h30.632l11.104,38.856c2.88,10.096,12.224,17.144,22.72,17.144
		c10.864,0,20.288-7.36,22.928-17.904l1.608-6.448l7.384,7.384c5.792,5.784,13.48,8.968,21.656,8.968
		C305.264,269,319,255.256,319,238.376c0-8.184-3.184-15.872-8.976-21.656l-38.656-38.656c-10.824-10.832-24.544-17.824-39.68-20.2
		l-48-7.584c-5.344-0.848-10.8-1.28-16.216-1.28H57.488c-13.296,0-26.296,2.496-38.624,7.44L7,161.184V149h-48v104H7v-16h21.496
		c14.96,0,29.016,5.832,39.6,16.4l54.632,54.632C128.504,313.816,136.192,317,144.368,317z M242.2,255.208
		c-0.856,3.408-3.896,5.792-7.408,5.792c-3.392,0-6.408-2.272-7.336-5.528l-9.664-33.816c8.144,1.368,15.664,5.112,21.608,11.064
		l6.736,6.736L242.2,255.208z M-9,237h-16v-72h16V237z"/>
	<path d="M407,557h-21.496c-14.96,0-29.016-5.832-39.6-16.4l-54.632-54.632c-5.776-5.784-13.464-8.968-21.64-8.968
		C252.736,477,239,490.744,239,507.624c0,8.184,3.184,15.872,8.976,21.656l32,32c4.528,4.536,7.024,10.56,7.024,16.976V597h16
		v-18.744c0-10.688-4.16-20.736-11.712-28.288l-32-32C256.56,515.24,255,511.48,255,507.624c0-8.064,6.56-14.624,14.632-14.624
		c3.904,0,7.584,1.52,10.344,4.28l54.624,54.632c13.6,13.6,31.68,21.088,50.912,21.088H407v42.584l-17.808,7.12
		C378.76,626.88,367.76,629,356.512,629H246.528c-4.592,0-9.208-0.36-13.72-1.072l-48-7.584
		c-11.776-1.856-22.448-7.296-30.864-15.72l-38.664-38.656c-2.72-2.728-4.28-6.488-4.28-10.344c0-8.064,6.56-14.624,14.632-14.624
		c3.904,0,7.584,1.52,10.344,4.28l27.312,27.312c10.576,10.576,24.64,16.408,39.6,16.408h40.784c8.656,0,17.312-2.048,25.04-5.912
		l5.864-2.928l-7.152-14.312l-5.864,2.928c-5.528,2.76-11.712,4.224-17.896,4.224h-30.632l-11.104-38.856
		c-2.88-10.096-12.224-17.144-22.72-17.144c-10.864,0-20.288,7.36-22.928,17.904l-1.608,6.448l-7.384-7.384
		c-5.792-5.784-13.48-8.968-21.656-8.968C108.736,525,95,538.744,95,555.624c0,8.184,3.184,15.872,8.976,21.656l38.656,38.656
		c10.824,10.832,24.544,17.824,39.68,20.2l48,7.584c5.344,0.848,10.8,1.28,16.216,1.28h109.984c13.296,0,26.296-2.496,38.624-7.44
		L407,632.816V645h48V541h-48V557z M171.8,538.792c0.856-3.408,3.896-5.792,7.408-5.792c3.392,0,6.408,2.272,7.336,5.528
		l9.664,33.816c-8.144-1.368-15.664-5.112-21.608-11.064l-6.736-6.736L171.8,538.792z M423,557h16v72h-16V557z"/>
	<rect x="399" y="253" width="16" height="24"/>
	<rect x="373.536" y="263.538" transform="matrix(0.707 -0.7072 0.7072 0.707 -83.0748 350.5557)" width="16" height="24"/>
	<rect x="359" y="293" width="24" height="16"/>
	<rect x="369.542" y="318.436" transform="matrix(0.7071 -0.7071 0.7071 0.7071 -119.0739 365.4014)" width="24" height="16"/>
	<rect x="399" y="325" width="16" height="24"/>
	<rect x="424.437" y="314.443" transform="matrix(0.707 -0.7072 0.7072 0.707 -104.1617 401.4677)" width="16" height="24"/>
	<rect x="431" y="293" width="24" height="16"/>
	<rect x="420.446" y="267.539" transform="matrix(0.7071 -0.7071 0.7071 0.7071 -68.1748 386.4886)" width="24" height="16"/>
	<rect x="-1" y="445" width="16" height="24"/>
	<rect x="-26.446" y="455.549" transform="matrix(0.707 -0.7072 0.7072 0.707 -336.0586 123.9435)" width="16" height="24"/>
	<rect x="-41" y="485" width="24" height="16"/>
	<rect x="-30.434" y="510.442" transform="matrix(0.7071 -0.7071 0.7071 0.7071 -371.9933 138.813)" width="24" height="16"/>
	<rect x="-1" y="517" width="16" height="24"/>
	<rect x="24.462" y="506.416" transform="matrix(0.707 -0.7072 0.7072 0.707 -357.1159 174.8498)" width="16" height="24"/>
	<rect x="31" y="485" width="24" height="16"/>
	<rect x="20.449" y="459.582" transform="matrix(0.7071 -0.7071 0.7071 0.7071 -321.1262 159.8963)" width="24" height="16"/>
	<path d="M252.088,325c-15.736,0-30.528,6.128-41.656,17.256L207,345.688l-3.432-3.432C192.44,331.128,177.648,325,161.912,325
		C129.424,325,103,351.432,103,383.912c0,15.736,6.128,30.528,17.256,41.656L207,512.312l86.744-86.744
		c11.128-11.12,17.256-25.92,17.256-41.656C311,351.432,284.576,325,252.088,325z M282.432,414.256L207,489.688l-75.432-75.432
		C123.464,406.16,119,395.376,119,383.912C119,360.248,138.248,341,161.912,341c11.464,0,22.24,4.464,30.344,12.568L207,368.312
		l14.744-14.744c8.104-8.104,18.888-12.568,30.344-12.568C275.752,341,295,360.248,295,383.912
		C295,395.376,290.536,406.16,282.432,414.256z"/>
	<rect x="189.629" y="436.994" transform="matrix(0.7071 -0.7071 0.7071 0.7071 -257.747 270.4834)" width="16" height="18.752"/>
	<path d="M154.2,391.64c-2.032-2.04-3.2-4.856-3.2-7.728c0-5.28,3.976-9.888,9.24-10.712l-2.48-15.816
		c-13.184,2.072-22.76,13.224-22.76,26.528c0,7.08,2.872,14.008,7.88,19.032l31.712,31.712l11.312-11.312L154.2,391.64z"/>
</g>
</svg>
