<?xml version="1.0" encoding="iso-8859-1"?>
<!-- Generator: Adobe Illustrator 23.0.1, SVG Export Plug-In . SVG Version: 6.00 Build 0)  -->
<svg version="1.1" id="Capa_1" xmlns="http://www.w3.org/2000/svg" xmlns:xlink="http://www.w3.org/1999/xlink" x="0px" y="0px"
	 viewBox="-49 141 512 512" style="enable-background:new -49 141 512 512;" xml:space="preserve">
<path d="M455,541V253c0-13.232-10.768-24-24-24h-33.584c-1.816-13.904-8.056-26.768-18.136-36.848l-11.312,11.312
	c9.072,9.072,14.064,21.128,14.064,33.944s-4.992,24.872-14.064,33.944l11.312,11.312c1.792-1.792,3.424-3.696,4.976-5.656H407v208
	H7V277h27.392c5.32,12.112,16.464,21.024,29.872,23.32C67.376,309.96,76.336,317,87,317h24h8c5.352,0,10.68,0.208,16,0.424V405
	c0,22.056,17.944,40,40,40s40-17.944,40-40v-76.168c23.456,5.84,46.448,13.712,68.8,23.872l3.888,1.768
	C290.176,365.064,299.656,373,311,373c13.232,0,24-10.768,24-24V173c0-13.232-10.768-24-24-24c-11.352,0-20.832,7.936-23.312,18.536
	l-3.888,1.768C231.68,192.992,176.232,205,119,205h-8H87c-10.664,0-19.624,7.04-22.736,16.68C57.84,222.784,52,225.424,47,229.2V229
	h-64c-13.232,0-24,10.768-24,24v288c0,13.232,10.768,24,24,24h119.312L-41,623.632V645H8.296l144-48h109.4l144,48H455v-21.368
	L311.688,565H431C444.232,565,455,554.232,455,541z M151,349h16v40h-16V349z M199,405c0,13.232-10.768,24-24,24s-24-10.768-24-24h32
	v-72h-32v-14.592c16.184,1.288,32.2,3.504,48,6.744V405z M127,220.928c55.464-1.048,109.216-13.064,160-35.608v20.056h16V173
	c0-4.408,3.584-8,8-8s8,3.592,8,8v176c0,4.408-3.584,8-8,8s-8-3.592-8-8V221.328h-16V336.68
	c-50.784-22.544-104.536-34.56-160-35.608V220.928z M79,229c0-4.408,3.584-8,8-8h24v16H95v16h16v16H95v16h16v16H87
	c-4.416,0-8-3.592-8-8V229z M63,238.472v45.048c-9.288-3.312-16-12.112-16-22.528C47,250.576,53.712,241.784,63,238.472z M-25,541
	V253c0-4.408,3.584-8,8-8h51.392C32.232,249.912,31,255.304,31,261H-9v240h432V261h-29.488c2.024-5.104,3.376-10.472,4.024-16H431
	c4.416,0,8,3.592,8,8v288c0,4.408-3.584,8-8,8H-17C-21.416,549-25,545.408-25,541z M5.704,629h-17.576L143,565.648v17.584L5.704,629
	z M159,581v-16h96v16H159z M408.296,629L271,583.232v-17.584L425.872,629H408.296z"/>
<rect x="295" y="421" width="96" height="16"/>
<rect x="295" y="389" width="96" height="16"/>
<path d="M356.656,260.032c6.048-6.04,9.376-14.08,9.376-22.632s-3.328-16.584-9.376-22.632l-11.312,11.312
	c3.024,3.024,4.688,7.04,4.688,11.32s-1.664,8.296-4.688,11.32L356.656,260.032z"/>
<path d="M167,237v48h80v-48H167z M183,253h16v16h-16V253z M231,269h-16v-16h16V269z"/>
<rect x="375" y="453" width="16" height="16"/>
<rect x="295" y="453" width="16" height="16"/>
<rect x="335" y="453" width="16" height="16"/>
<rect x="239" y="517" width="16" height="16"/>
<rect x="159" y="517" width="16" height="16"/>
<rect x="199" y="517" width="16" height="16"/>
</svg>
