<?xml version="1.0" encoding="iso-8859-1"?>
<!-- Generator: Adobe Illustrator 23.0.1, SVG Export Plug-In . SVG Version: 6.00 Build 0)  -->
<svg version="1.1" id="&#x421;&#x43B;&#x43E;&#x439;_1"
	 xmlns="http://www.w3.org/2000/svg" xmlns:xlink="http://www.w3.org/1999/xlink" x="0px" y="0px" viewBox="0 0 1920 1080"
	 style="enable-background:new 0 0 1920 1080;" xml:space="preserve">
<g>
	<path d="M1104,500c57.344,0,104-46.656,104-104c0-57.344-46.656-104-104-104s-104,46.656-104,104
		C1000,453.344,1046.656,500,1104,500L1104,500z M1104,308c48.52,0,88,39.48,88,88s-39.48,88-88,88s-88-39.48-88-88
		S1055.48,308,1104,308L1104,308z M1104,308"/>
	<path d="M1104,372c4.406,0,8,3.594,8,8h16c0-10.414-6.711-19.215-16-22.527V348h-16v9.473c-9.289,3.312-16,12.113-16,22.527
		c0,13.23,10.77,24,24,24c4.406,0,8,3.594,8,8c0,4.406-3.594,8-8,8s-8-3.594-8-8h-16c0,10.414,6.711,19.215,16,22.527V444h16v-9.473
		c9.289-3.312,16-12.113,16-22.527c0-13.23-10.77-24-24-24c-4.406,0-8-3.594-8-8C1096,375.594,1099.594,372,1104,372L1104,372z
		 M1104,372"/>
	<path d="M1104,340c30.879,0,56,25.121,56,56c0,12.496-4.078,24.359-11.801,34.297l12.633,9.816
		C1170.754,427.336,1176,412.09,1176,396c0-39.695-32.305-72-72-72c-16.09,0-31.336,5.246-44.113,15.168l9.816,12.633
		C1079.641,344.078,1091.504,340,1104,340L1104,340z M1104,340"/>
	<path d="M1104,468c16.09,0,31.336-5.246,44.113-15.168l-9.816-12.633C1128.359,447.922,1116.496,452,1104,452
		c-30.879,0-56-25.121-56-56c0-12.496,4.078-24.359,11.801-34.297l-12.633-9.816C1037.246,364.664,1032,379.91,1032,396
		C1032,435.695,1064.305,468,1104,468L1104,468z M1104,468"/>
	<path d="M1184,740h-16v16h-48v-16h-16v16h-48v-16h-16v16h-48v-16h-16v16h-48v-16h-16v16h-48v-16h-16v16h-48v-16h-16v16h-24V292h-16
		v32h-32v16h32v32h-32v16h32v32h-32v16h32v32h-32v16h32v32h-32v16h32v32h-32v16h32v32h-32v16h32v32h-32v16h32v32h-32v16h32v48h40v16
		h16v-16h48v16h16v-16h48v16h16v-16h48v16h16v-16h48v16h16v-16h48v16h16v-16h48v16h16v-16h24v-16h-24V740z M1184,740"/>
	<path d="M1192,628h-48v30.527c-9.289-3.312-16-12.113-16-22.527v-48c0-19.312-13.77-35.473-32-39.191V516h-48v32.809
		c-18.23,3.718-32,19.871-32,39.191v48c0,10.414-6.711,19.215-16,22.527V628h-48v30.527c-9.289-3.312-16-12.113-16-22.527V476
		c0-19.312-13.77-35.473-32-39.191V404h-48v32.809c-18.23,3.718-32,19.871-32,39.191v160c0,13.23-10.77,24-24,24h-24v16h24
		c22.055,0,40-17.945,40-40V476c0-10.414,6.711-19.215,16-22.527V484h48v-30.527c9.289,3.312,16,12.113,16,22.527v160
		c0,19.312,13.77,35.473,32,39.191V708h48v-32.809c18.23-3.718,32-19.871,32-39.191v-48c0-10.414,6.711-19.215,16-22.527V596h48
		v-30.527c9.289,3.312,16,12.113,16,22.527v48c0,19.312,13.77,35.473,32,39.191V708h48v-32h16v-16h-16V628z M888,468h-16v-48h16V468
		z M984,692h-16v-48h16V692z M1080,580h-16v-48h16V580z M1176,692h-16v-48h16V692z M1176,692"/>
</g>
</svg>
