<?xml version="1.0" encoding="iso-8859-1"?>
<!-- Generator: Adobe Illustrator 23.0.1, SVG Export Plug-In . SVG Version: 6.00 Build 0)  -->
<svg version="1.1" id="Layer_1" xmlns="http://www.w3.org/2000/svg" xmlns:xlink="http://www.w3.org/1999/xlink" x="0px" y="0px"
	 viewBox="-49 141 512 512" style="enable-background:new -49 141 512 512;" xml:space="preserve">
<path d="M309.443,363.734c-17.631-16.448-38.939-28.369-61.918-34.892c33.693-15.57,57.133-49.683,57.133-89.172
	c0-54.133-44.04-98.174-98.173-98.174c-54.133,0-98.174,44.041-98.174,98.174c0,39.443,23.385,73.523,57.016,89.117
	c-22.777,6.433-43.821,18.206-61.523,34.678l-20.322-20.322L-49,475.625l43.065,43.065l18.767-18.766l16.157,16.157l19.516-19.515
	L88.15,536.21l-17.779,17.779l35.517,35.545l0.01-0.01l25.194,25.215l0.01-0.01l24.287,24.306l5.65-5.651l19.102,19.117
	l22.708-22.708l21.372,21.371l21.424-21.425l8.253,8.252l31.451-31.45l0,0l26.505-26.504l0,0l31.99-31.991l-15.392-15.393
	l35.895-35.894l19.75,19.751l16.038-16.038l18.766,18.767l43.066-43.066L329.486,343.692L309.443,363.734z M261.19,349.373
	c13.818,6.07,26.635,14.423,37.828,24.787l-21.265,21.265h-56.734L261.19,349.373z M206.484,389.665l-39.996-45.85
	c12.81-3.926,26.26-5.97,39.996-5.97c13.638,0,27.094,2.084,39.935,6.039L206.484,389.665z M206.484,156.237
	c46.005,0,83.432,37.429,83.432,83.433c0,0.284-0.019,0.564-0.022,0.848c-55.308-1.464-88.253-19.992-101.196-29.097
	c6.169-7.421,8.846-12.775,9.128-13.358l-13.262-6.434c-0.152,0.314-14.872,29.67-61.469,46.224
	C124.07,192.687,161.088,156.237,206.484,156.237z M124.141,253.074c25.302-8.332,42.723-20.237,54.247-30.85
	c13.526,10.054,49.006,31.183,110.051,32.999c-7.31,38.595-41.268,67.88-81.956,67.88
	C165.043,323.104,130.575,292.727,124.141,253.074z M151.715,349.303l40.233,46.124h-56.185l-21.535-21.534
	C125.423,363.558,138.084,355.298,151.715,349.303z M28.99,495.237L28.99,495.237L28.99,495.237l-5.734-5.734l62.442-62.444
	l-10.424-10.421L7.621,484.291l0,0l-13.555,13.554l-22.22-22.22L83.481,363.99l38.405,38.406L28.99,495.237z M105.892,568.685
	l-14.679-14.691l31.365-31.365l14.685,14.685L105.892,568.685z M130.285,593.078l-13.869-13.88l31.365-31.365l13.874,13.874
	L130.285,593.078z M154.57,617.363l-13.045-13.057l31.365-31.365l13.051,13.052L154.57,617.363z M180.147,631.653l-8.684-8.691
	l20.078-20.078l8.687,8.687L180.147,631.653z M224.222,630.32l-10.948-10.949l7.8-7.8l-19.11-19.11l3.201-3.201l7.09,7.09
	l-0.069,0.069l22.967,22.968L224.222,630.32z M318.03,522.232l-82.405-82.404l-57.399,57.399l-31.348-31.348l36.56-36.559
	l-10.423-10.423l-46.982,46.982l52.194,52.193l57.399-57.399l64.406,64.406l22.967,22.968l-15.816,15.816l-38.466-38.466
	l-10.423,10.423l38.466,38.465l-16.356,16.357l-38.466-38.466l-10.423,10.423l38.466,38.465l-16.082,16.082l-38.465-38.465
	l-7.979,7.979l-24.142-24.142l0,0l-25.203-25.203l-10.328-10.328l-25.202-25.204l-24.003,24.003l-39.617-39.616l76.005-76.005
	h142.792l76.171,76.171L318.03,522.232z M418.902,498.394l-13.554-13.555l0,0l-67.655-67.653l-10.421,10.423l62.441,62.441
	l-5.615,5.615l0,0l0,0l-92.867-92.868l38.257-38.259l111.635,111.636L418.902,498.394z"/>
<rect x="311.637" y="402.817" transform="matrix(0.7071 -0.7071 0.7071 0.7071 -195.7239 345.3458)" width="14.74" height="12.23"/>
<rect x="87.833" y="401.022" transform="matrix(0.7072 -0.707 0.707 0.7072 -261.2282 185.9968)" width="12.232" height="14.74"/>
<rect x="448.261" y="220.667" width="14.74" height="16.047"/>
<rect x="394.203" y="250.717" width="14.74" height="16.047"/>
<rect x="351.928" y="186.823" width="14.74" height="16.048"/>
<rect x="394.203" y="155.888" width="14.74" height="16.048"/>
<rect x="319.853" y="274.105" width="14.74" height="16.048"/>
<rect x="392.768" y="323.741" width="14.74" height="16.047"/>
<rect x="-47.999" y="220.667" width="14.74" height="16.047"/>
<rect x="6.06" y="250.717" width="14.74" height="16.047"/>
<rect x="48.335" y="186.823" width="14.74" height="16.048"/>
<rect x="6.06" y="155.888" width="14.74" height="16.048"/>
<rect x="80.41" y="274.105" width="14.74" height="16.048"/>
<rect x="7.495" y="323.741" width="14.74" height="16.047"/>
</svg>
