<?xml version="1.0" encoding="iso-8859-1"?>
<!-- Generator: Adobe Illustrator 23.0.1, SVG Export Plug-In . SVG Version: 6.00 Build 0)  -->
<svg version="1.1" id="&#x421;&#x43B;&#x43E;&#x439;_1"
	 xmlns="http://www.w3.org/2000/svg" xmlns:xlink="http://www.w3.org/1999/xlink" x="0px" y="0px" viewBox="0 0 1920 1080"
	 style="enable-background:new 0 0 1920 1080;" xml:space="preserve">
<g>
	<rect x="1027.023" y="572" width="21.387" height="15"/>
	<rect x="869.613" y="572" width="124.41" height="15"/>
	<rect x="1027.023" y="538.012" width="21.387" height="15"/>
	<rect x="869.613" y="538.012" width="124.41" height="15"/>
	<rect x="1027.023" y="504.023" width="21.387" height="15"/>
	<rect x="869.613" y="504.023" width="124.41" height="15"/>
	<rect x="1027.023" y="640.086" width="21.387" height="15"/>
	<rect x="1027.023" y="606.098" width="21.387" height="15"/>
	<rect x="870.273" y="606.098" width="123.75" height="15"/>
	<path d="M1056.883,696.789v-15h-10.977v-10.613h-15v10.613h-10.976v36.949h21.953v6.953h-21.953v15h10.976v11.852h15v-11.852
		h10.977v-36.953h-21.953v-6.949H1056.883z M1056.883,696.789"/>
	<path d="M912.41,358.113l-4.183-15.668h-37.954v15h26.434l25.688,96.145h3.152c-0.731,2.183-1.129,4.515-1.129,6.941
		c0,12.102,9.844,21.946,21.945,21.946c12.098,0,21.942-9.844,21.942-21.946c0-2.426-0.395-4.758-1.125-6.941h16.8
		c-0.73,2.183-1.128,4.515-1.128,6.941c0,12.102,9.843,21.946,21.945,21.946c12.098,0,21.941-9.844,21.941-21.946
		c0-12.097-9.843-21.941-21.941-21.941H933.91l-1.433-5.367h87.328l16.086-60.11h6.078v-15H912.41z M1020.363,373.113l-4.027,15.055
		h-23.625v-15.055H1020.363z M977.711,373.113v15.055H959.09v-15.055H977.711z M944.09,373.113v15.055h-23.621l-4.031-15.055H944.09
		z M953.309,460.531c0,3.828-3.118,6.942-6.946,6.942s-6.941-3.114-6.941-6.942c0-3.828,3.113-6.941,6.941-6.941
		S953.309,456.703,953.309,460.531L953.309,460.531z M1011.738,460.531c0,3.828-3.113,6.942-6.941,6.942s-6.942-3.114-6.942-6.942
		c0-3.828,3.114-6.941,6.942-6.941S1011.738,456.703,1011.738,460.531L1011.738,460.531z M928.512,418.223l-4.032-15.055h19.61
		v15.055H928.512z M959.09,418.223v-15.055h18.621v15.055H959.09z M992.711,418.223v-15.055h19.609l-4.027,15.055H992.711z
		 M992.711,418.223"/>
	<path d="M985.75,729.93v15H1007v-66h-21.25v15H992v36H985.75z M985.75,729.93"/>
	<path d="M1140.812,284h-250.25c-35.39,0-64.187,28.793-64.187,64.188V627.59h15V348.188c0-27.122,22.066-49.188,49.187-49.188
		h209.055c-14.047,11.785-22.992,29.461-22.992,49.188v383.624c0,27.122-22.066,49.188-49.187,49.188
		c-27.126,0-49.188-22.062-49.188-49.188V655.09h15.773v-15H713v91.722C713,767.207,741.793,796,777.188,796H1027.5
		c35.363-0.035,64.125-28.816,64.125-64.188V395.168h49.187v-15h-49.187v-31.98c0-27.122,22.066-49.188,49.187-49.188
		c27.126,0,49.188,22.066,49.188,49.188v87.714h-85.875v15H1205V348.188C1205,312.793,1176.207,284,1140.812,284L1140.812,284z
		 M777.188,781C750.066,781,728,758.934,728,731.812V655.09h235.25v76.722c0,19.727,8.945,37.407,23.004,49.188H777.188z
		 M777.188,781"/>
	<path d="M880.254,686.988h-79.457v-15h79.457V686.988z M790.797,686.988h-15v-15h15V686.988z M765.797,686.988h-15v-15h15V686.988z
		 M765.797,686.988"/>
	<path d="M1061,326.492h-71.727v-15H1061V326.492z M979.273,326.492h-15v-15h15V326.492z M954.273,326.492h-15v-15h15V326.492z
		 M954.273,326.492"/>
</g>
</svg>
