<?xml version="1.0" encoding="iso-8859-1"?>
<!-- Generator: Adobe Illustrator 23.0.1, SVG Export Plug-In . SVG Version: 6.00 Build 0)  -->
<svg version="1.1" id="Capa_1" xmlns="http://www.w3.org/2000/svg" xmlns:xlink="http://www.w3.org/1999/xlink" x="0px" y="0px"
	 viewBox="-49 141 512 512" style="enable-background:new -49 141 512 512;" xml:space="preserve">
<g>
	<path d="M39,605h64v-40h40v-64h-40v-40H39v40H-1v64h40V605z M15,549v-32h40v-40h32v40h40v32H87v40H55v-40H15z"/>
	<path d="M71,437c18.392,0,36.264,5.216,51.672,15.08l8.624-13.472C113.312,427.088,92.456,421,71,421C9.24,421-41,471.24-41,533
		c0,21.464,6.088,42.312,17.608,60.304l13.48-8.624C-19.784,569.264-25,551.4-25,533C-25,480.064,18.064,437,71,437z"/>
	<path d="M183,533c0-25.24-8.192-49.072-23.704-68.912l-12.608,9.856C159.976,490.936,167,511.36,167,533c0,52.936-43.064,96-96,96
		c-22.384,0-44.176-7.872-61.36-22.168l-10.232,12.296C19.464,635.816,44.88,645,71,645C132.76,645,183,594.76,183,533z"/>
	<path d="M303,197h-32v-16c0-17.648-14.352-32-32-32h-64c-17.648,0-32,14.352-32,32v16h-32v64h192V197z M159,181
		c0-8.824,7.176-16,16-16h64c8.824,0,16,7.176,16,16v16h-96V181z M287,245H127v-32h160V245z"/>
	<rect x="199" y="173" width="16" height="16"/>
	<rect x="143" y="221" width="16" height="16"/>
	<rect x="255" y="221" width="16" height="16"/>
	<polygon points="183,613 351,613 351,533 335,533 335,597 183,597 	"/>
	<polygon points="335,301 351,301 351,245 319,245 319,261 335,261 	"/>
	<polygon points="367,629 143,629 143,645 383,645 383,469 367,469 	"/>
	<polygon points="367,245 383,245 383,213 319,213 319,229 367,229 	"/>
	<polygon points="95,245 63,245 63,405 79,405 79,261 95,261 	"/>
	<polygon points="47,229 95,229 95,213 31,213 31,405 47,405 	"/>
	<path d="M455,263.168v-1.448c0-18.04-14.68-32.72-32.72-32.72c-12.472,0-23.688,6.928-29.264,18.088L258.456,516.2
		c-2.264,4.528-3.456,9.584-3.456,14.632v1.448c0,8.048,3.032,15.328,7.864,21.032l-9.656,15.448l13.568,8.488l9.088-14.544
		c3.696,1.432,7.672,2.296,11.856,2.296c12.472,0,23.688-6.928,29.264-18.088l114.392-228.784l1.688,0.848
		c3.656,1.832,5.928,5.504,5.928,9.6c0,1.656-0.392,3.312-1.136,4.8l-30.024,60.048c-6.376,12.768-1.184,28.344,11.576,34.736
		l7.168-14.312c-4.88-2.44-6.864-8.392-4.424-13.264l30.024-60.048c1.848-3.704,2.824-7.832,2.824-11.96
		c0-10.192-5.664-19.36-14.784-23.912l-1.688-0.84l13.016-26.024C453.808,273.272,455,268.216,455,263.168z M302.672,539.76
		c-2.84,5.704-8.576,9.24-14.952,9.24c-9.216,0-16.72-7.504-16.72-16.72v-1.448c0-2.584,0.608-5.168,1.768-7.48l85.016-170.024
		l30.488,15.24L302.672,539.76z M439,263.168c0,2.584-0.608,5.168-1.768,7.48l-41.816,83.624l-30.488-15.24l42.392-84.776
		c2.848-5.72,8.584-9.256,14.96-9.256c9.224,0,16.72,7.504,16.72,16.72V263.168z"/>
	<rect x="95" y="301" width="16" height="16"/>
	<rect x="127" y="301" width="192" height="16"/>
	<rect x="95" y="333" width="224" height="16"/>
	<rect x="95" y="365" width="96" height="16"/>
	<rect x="223" y="365" width="96" height="16"/>
	<rect x="175" y="413" width="64" height="16"/>
	<rect x="175" y="445" width="64" height="16"/>
	<rect x="255" y="413" width="16" height="16"/>
	<rect x="255" y="445" width="16" height="16"/>
</g>
</svg>
