<?xml version="1.0" encoding="iso-8859-1"?>
<!-- Generator: Adobe Illustrator 23.0.1, SVG Export Plug-In . SVG Version: 6.00 Build 0)  -->
<svg version="1.1" id="Capa_1" xmlns="http://www.w3.org/2000/svg" xmlns:xlink="http://www.w3.org/1999/xlink" x="0px" y="0px"
	 viewBox="-49 141 512 512" style="enable-background:new -49 141 512 512;" xml:space="preserve">
<path d="M455,301c0-66.168-53.832-120-120-120c-32.248,0-61.504,12.848-83.088,33.616l-40.904-39.768l-37.144,18.576
	c-3.976-1.904-7.984-3.576-11.96-5.008L148.768,149H89.24l-13.144,39.424c-3.976,1.432-7.984,3.104-11.96,5.008l-37.224-18.616
	l-42.096,42.096l18.616,37.216c-1.904,3.976-3.576,7.984-5.008,11.96L-41,279.232v59.528l39.424,13.144
	c1.44,3.992,3.112,7.992,5.008,11.952l-18.616,37.224l42.104,42.104l37.216-18.616c3.976,1.904,7.984,3.576,11.96,5.008L89.232,469
	h59.528l13.144-39.424c3.976-1.432,7.984-3.104,11.96-5.008l37.216,18.616l42.104-42.104l-14.216-28.424
	c17.32,23.152,42.696,39.944,72.032,45.92V469h-16v136c0,22.056,17.944,40,40,40s40-17.944,40-40V469h-16v-50.416
	C413.712,407.432,455,358.952,455,301z M233.72,397.928l-25.792,25.792l-34.112-17.064l-3.616,1.864
	c-5.68,2.936-11.424,5.336-17.072,7.144l-3.864,1.232L137.232,453H100.76l-12.032-36.104l-3.864-1.232
	c-5.648-1.808-11.392-4.2-17.072-7.144l-3.616-1.864L30.072,423.72L4.28,397.928l17.064-34.112L19.48,360.2
	c-2.912-5.648-5.32-11.392-7.144-17.08l-1.232-3.856L-25,327.232V290.76l36.104-12.032l1.232-3.864
	c1.808-5.648,4.2-11.384,7.144-17.064l1.864-3.616L4.28,220.072l25.792-25.792l34.112,17.064l3.616-1.864
	c5.68-2.936,11.424-5.336,17.072-7.144l3.864-1.232L100.768,165h36.472l12.032,36.104l3.864,1.232
	c5.648,1.808,11.384,4.2,17.064,7.144l3.616,1.864L208,194.24l33.128,32.208C224.824,246.952,215,272.832,215,301
	c0,16.352,3.312,31.936,9.256,46.152c-1.592,4.344-3.504,8.72-5.736,13.056l-1.856,3.608L233.72,397.928z M231,301
	c0-57.344,46.656-104,104-104s104,46.656,104,104s-46.656,104-104,104S231,358.344,231,301z M359,605c0,13.232-10.768,24-24,24
	s-24-10.768-24-24V485h48V605z M343,469h-16v-48.408c2.656,0.176,5.296,0.408,8,0.408s5.344-0.232,8-0.408V469z"/>
<path d="M387.816,371.4l-9.616-12.8c-12.536,9.424-27.472,14.4-43.2,14.4c-39.704,0-72-32.296-72-72s32.296-72,72-72
	s72,32.296,72,72c0,18.96-7.312,36.856-20.576,50.4l11.424,11.2C414.072,346.048,423,324.168,423,301c0-48.52-39.48-88-88-88
	s-88,39.48-88,88s39.48,88,88,88C354.216,389,372.488,382.912,387.816,371.4z"/>
<circle cx="335" cy="605" r="8"/>
<path d="M119,213c-52.936,0-96,43.064-96,96s43.064,96,96,96s96-43.064,96-96S171.936,213,119,213z M184.512,354.776
	c-3.328-3.176-8.344-7.184-15.544-10.928c2.864-8.176,4.88-17.128,5.624-26.848h24C197.2,330.96,192.168,343.848,184.512,354.776z
	 M39.408,317h24.056c0.904,9.248,3.28,18.096,6.576,26.368c-7.704,3.872-13.072,8.088-16.552,11.408
	C45.832,343.848,40.8,330.96,39.408,317z M53.488,263.224c3.328,3.176,8.344,7.184,15.544,10.928
	c-2.864,8.176-4.88,17.128-5.624,26.848h-24C40.8,287.04,45.832,274.152,53.488,263.224z M111,268.744
	c-7.96-0.496-14.736-1.728-20.536-3.328c6.312-11.6,14.072-20.728,20.536-27.096V268.744z M111,284.744V301H79.424
	c0.688-7.48,2.312-14.424,4.544-20.872C91.544,282.44,100.48,284.152,111,284.744z M111,317v16.256
	c-10.056,0.56-18.672,2.144-26.032,4.296c-2.616-6.544-4.616-13.424-5.48-20.552H111z M111,349.256v28.56
	c-5.968-6.616-12.952-15.416-18.912-25.696C97.512,350.736,103.792,349.704,111,349.256z M127,349.256
	c7.96,0.496,14.736,1.728,20.536,3.328c-6.312,11.6-14.072,20.728-20.536,27.096V349.256z M127,333.256V317h31.576
	c-0.688,7.48-2.312,14.424-4.544,20.872C146.456,335.56,137.52,333.848,127,333.256z M127,301v-16.256
	c10.056-0.56,18.672-2.144,26.032-4.296c2.616,6.544,4.616,13.424,5.48,20.552H127z M127,268.744v-28.56
	c5.968,6.616,12.952,15.416,18.912,25.696C140.488,267.264,134.208,268.296,127,268.744z M141.416,232.256
	c12.4,3.632,23.536,10.184,32.664,18.872c-2.296,2.328-6.448,5.816-12.96,9.12C155.024,249.248,147.864,239.696,141.416,232.256z
	 M75.344,259.448c-5.64-3.064-9.312-6.184-11.424-8.32c8.392-7.992,18.488-14.168,29.712-17.936
	C87.4,240.128,80.832,248.912,75.344,259.448z M76.888,357.752c6.088,11,13.256,20.56,19.696,27.992
	c-12.4-3.632-23.536-10.184-32.664-18.872C66.216,364.544,70.368,361.056,76.888,357.752z M162.656,358.552
	c5.64,3.064,9.312,6.184,11.424,8.32c-8.392,7.992-18.488,14.168-29.712,17.936C150.6,377.872,157.168,369.088,162.656,358.552z
	 M174.536,301c-0.904-9.248-3.28-18.096-6.576-26.368c7.704-3.872,13.072-8.088,16.552-11.408
	C192.168,274.152,197.2,287.04,198.6,301H174.536z"/>
<path d="M247,549c-7.04,0-13.328,3.104-17.72,7.952l-54.408-22.672c0.024-0.432,0.128-0.84,0.128-1.28c0-13.232-10.768-24-24-24
	s-24,10.768-24,24c0,3.328,0.688,6.504,1.92,9.384l-62.736,57.504C62.824,598.104,59.056,597,55,597
	c-2.848,0-5.536,0.584-8.072,1.496L3.464,545.368C5.664,541.744,7,537.544,7,533c0-13.232-10.768-24-24-24s-24,10.768-24,24
	s10.768,24,24,24c2.848,0,5.544-0.584,8.08-1.496l43.464,53.128C32.344,612.248,31,616.456,31,621c0,13.232,10.768,24,24,24
	s24-10.768,24-24c0-3.328-0.688-6.504-1.92-9.392l62.736-57.504c3.36,1.792,7.128,2.896,11.184,2.896
	c7.04,0,13.328-3.104,17.72-7.952l54.408,22.672c-0.024,0.432-0.128,0.84-0.128,1.28c0,13.232,10.768,24,24,24s24-10.768,24-24
	S260.232,549,247,549z M-17,541c-4.416,0-8-3.584-8-8s3.584-8,8-8s8,3.584,8,8S-12.584,541-17,541z M55,629c-4.416,0-8-3.584-8-8
	s3.584-8,8-8s8,3.584,8,8S59.416,629,55,629z M151,541c-4.416,0-8-3.584-8-8s3.584-8,8-8s8,3.584,8,8S155.416,541,151,541z M247,581
	c-4.416,0-8-3.584-8-8s3.584-8,8-8s8,3.584,8,8S251.416,581,247,581z"/>
</svg>
