<?xml version="1.0" encoding="iso-8859-1"?>
<!-- Generator: Adobe Illustrator 23.0.1, SVG Export Plug-In . SVG Version: 6.00 Build 0)  -->
<svg version="1.1" id="Capa_1" xmlns="http://www.w3.org/2000/svg" xmlns:xlink="http://www.w3.org/1999/xlink" x="0px" y="0px"
	 viewBox="-49 141 512 512" style="enable-background:new -49 141 512 512;" xml:space="preserve">
<path d="M441.048,299.376L319,270.664V149H7c-26.472,0-48,21.528-48,48v400c0,26.472,21.528,48,48,48h312v-16
	c-17.648,0-32-14.352-32-32s14.352-32,32-32v-8v-8v-89.752l96-24v-94.496l26.048-6.128C449.264,332.68,455,325.44,455,317
	S449.264,301.32,441.048,299.376z M-1,166.136V549.72c-9.136,1.544-17.384,5.664-24,11.6V197C-25,182.128-14.768,169.712-1,166.136z
	 M283.248,629H7c-17.648,0-32-14.352-32-32s14.352-32,32-32h276.248C275.64,573.496,271,584.72,271,597S275.64,620.504,283.248,629z
	 M15,549V165h288v105.664l-32,7.528V197H47v144h120v16H47v16h120v17.472c-9.288,3.312-16,12.112-16,22.528v56h48v-56
	c0-10.416-6.712-19.216-16-22.528v-55.368l24,5.648v94.496l96,24V549H15z M183,413v40h-16v-40c0-4.416,3.584-8,8-8
	S183,408.584,183,413z M167,317v8H63V213h192v68.952l-74.048,17.416C172.736,301.32,167,308.56,167,317z M399,390.76l-17.72,4.432
	l3.872,15.512L399,407.24v15.504l-88,22l-88-22V407.24l88,22.008l58.072-14.52l-3.872-15.512L311,412.752l-88-21.992v-46.24
	l88,20.704l88-20.704V390.76z M437.376,319.048L311,348.784l-126.376-29.736C183.672,318.824,183,317.984,183,317
	s0.672-1.824,1.624-2.048L311,285.216l126.376,29.736c0.952,0.224,1.624,1.064,1.624,2.048S438.328,318.824,437.376,319.048z"/>
<rect x="47" y="397" width="88" height="16"/>
<rect x="47" y="429" width="88" height="16"/>
<rect x="47" y="461" width="88" height="16"/>
<rect x="47.004" y="493.243" transform="matrix(1 -0.0049 0.0049 1 -2.4548 0.5303)" width="120.001" height="16"/>
<rect x="182.997" y="493.252" transform="matrix(1 -0.0061 0.0061 1 -3.0534 1.394)" width="88.002" height="16"/>
<rect x="-1" y="589" width="224" height="16"/>
<rect x="239" y="589" width="16" height="16"/>
</svg>
